<?xml version="1.0" encoding="UTF-8" standalone="no"?>
<svg width="1592px" height="192px" viewBox="0 0 1592 192" version="1.1" xmlns="http://www.w3.org/2000/svg" xmlns:xlink="http://www.w3.org/1999/xlink">
    <!-- Generator: Sketch 3.6.1 (26313) - http://www.bohemiancoding.com/sketch -->
    <title>Wiredcraft logo 2</title>
    <desc>Created with Sketch.</desc>
    <defs></defs>
    <g id="Page-1" stroke="none" stroke-width="1" fill="none" fill-rule="evenodd">
        <g id="Light-background">
            <path d="M100,68 L160,68 L160,128 L100,128 L100,68 Z M160,128 L200,128 L200,188 L160,188 L160,128 Z M60,128 L100,128 L100,188 L60,188 L60,128 Z M100,8 L160,8 L160,68 L100,68 L100,8 Z M200,128 L260,128 L260,188 L200,188 L200,128 Z M0,68 L60,68 L60,128 L0,128 L0,68 Z M0,128 L60,128 L60,188 L0,128 Z M100,128 L160,128 L160,188 L100,128 Z M0,8 L60,8 L60,68 L0,68 L0,8 Z M200,68 L260,68 L260,128 L200,128 L200,68 Z M200,8 L260,8 L260,68 L200,68 L200,8 Z" id="W" fill="#E32929"></path>
            <g id="Shadows" transform="translate(60.000000, 128.000000)" fill-opacity="0.1" fill="#000000">
                <path d="M0,0 L40,60 L0,60 L0,0 Z" id="Rectangle-1"></path>
                <path d="M100,0 L140,60 L100,60 L100,0 Z" id="Rectangle-1"></path>
            </g>
            <path d="M551.08,26.2 L510.28,26.2 L482.2,127.48 L454.6,26.2 L416.92,26.2 L389.32,127.48 L361.24,26.2 L320.68,26.2 L366.52,187 L408.76,187 L435.88,87.64 L462.76,187 L505.24,187 L551.08,26.2 Z M587.56,9.16 C581.08,9.16 575.8,11.32 571.72,15.64 C567.64,19.96 565.48,25.24 565.48,31.24 C565.48,37.24 567.64,42.28 571.72,46.36 C575.8,50.44 581.08,52.6 587.56,52.6 C594.04,52.6 599.32,50.68 603.64,46.6 C607.96,42.52 610.12,37.48 610.12,31.48 C610.12,25.48 607.96,20.44 603.64,16.12 C599.32,11.8 594.04,9.64 587.56,9.64 L587.56,9.16 Z M606.76,187.48 L606.76,67 L568.36,67 L568.36,187.48 L606.76,187.48 Z M716.44,64.84 C698.68,64.84 684.76,73 674.92,89.56 L674.92,66.52 L636.52,66.52 L636.52,187 L674.92,187 L674.92,149.32 C674.92,119.32 688.84,104.2 716.44,104.2 L723.4,104.2 L725.08,65.8 C722.44,65.08 719.56,64.84 716.44,64.84 L716.44,64.84 Z M859.48,126.76 C859,107.56 853.24,92.2 841.48,80.44 C829.72,68.68 815.08,62.92 797.56,62.92 C779.56,62.92 764.44,68.92 752.2,80.92 C739.96,92.92 733.72,108.28 733.72,126.76 C733.72,145.48 739.96,160.84 752.2,172.84 C764.44,184.84 779.56,190.84 797.32,190.84 C811.48,190.84 823.72,187.72 834.04,181.48 C844.36,175.24 852.04,165.88 857.08,153.4 L823,146.44 C817.96,155.8 809.32,160.36 797.32,160.36 C790.84,160.36 785.32,158.2 780.76,154.12 C776.2,150.04 773.08,144.28 771.4,137.08 L859.72,137.08 L859.48,126.76 Z M797.56,94.6 C803.32,94.6 808.36,96.28 812.68,99.4 C817,102.52 820.12,107.32 821.8,113.56 L772.12,113.56 C773.8,107.56 777.16,103 781.96,99.64 C786.76,96.28 792.04,94.6 797.56,94.6 L797.56,94.6 Z M1006.12,2.2 L967.72,2.2 L967.72,76.84 C958.12,67.48 945.64,62.92 930.28,62.92 C913.96,62.92 900.04,68.92 888.52,80.92 C877,92.92 871.24,108.28 871.24,126.76 C871.24,145.48 877,160.84 888.52,172.84 C900.04,184.84 913.96,190.84 930.28,190.84 C945.64,190.84 958.12,186.28 967.72,176.92 L967.72,187.24 L1006.12,187.24 L1006.12,2.2 Z M938.2,158.2 C929.8,158.2 922.84,155.32 917.32,149.56 C911.8,143.8 909.16,136.36 909.16,127 C909.16,117.88 911.8,110.44 917.32,104.68 C922.84,98.92 929.8,96.04 938.2,96.04 C946.12,96.04 953.08,98.92 958.84,104.92 C964.6,110.92 967.48,118.36 967.48,127.24 C967.48,136.36 964.6,143.8 958.84,149.56 C953.08,155.32 946.12,158.2 938.2,158.2 L938.2,158.2 Z M1091.8,157 C1083.16,157 1076.2,154.12 1070.92,148.6 C1065.64,143.08 1063,135.88 1063,127 C1063,118.12 1065.64,110.92 1070.92,105.16 C1076.2,99.4 1083.16,96.52 1091.8,96.52 C1098.28,96.52 1103.8,98.44 1108.36,102.04 C1112.92,105.64 1116.04,110.92 1117.72,117.88 L1153.72,109.24 C1150.36,95.32 1142.92,84.04 1131.64,75.64 C1120.36,67.24 1107.16,62.92 1092.28,62.92 C1073.8,62.92 1058.2,68.92 1045.48,80.92 C1032.76,92.92 1026.28,108.28 1026.28,126.76 C1026.28,145.48 1032.52,160.84 1045.24,172.84 C1057.96,184.84 1073.56,190.84 1092.04,190.84 C1107.16,190.84 1120.36,186.52 1131.64,177.88 C1142.92,169.24 1150.12,157.96 1153.24,143.8 L1117.96,136.12 C1113.88,150.28 1105.24,157.24 1091.8,157.24 L1091.8,157 Z M1253.08,64.84 C1235.32,64.84 1221.4,73 1211.56,89.56 L1211.56,66.52 L1173.16,66.52 L1173.16,187 L1211.56,187 L1211.56,149.32 C1211.56,119.32 1225.48,104.2 1253.08,104.2 L1260.04,104.2 L1261.72,65.8 C1259.08,65.08 1256.2,64.84 1253.08,64.84 L1253.08,64.84 Z M1332.28,62.92 C1317.88,62.92 1305.64,66.28 1295.8,73 C1285.96,79.72 1279.72,89.08 1277.08,100.84 L1313.32,108.28 C1315,98.2 1321.72,93.16 1333.48,93.16 C1338.52,93.16 1342.6,94.84 1345.72,97.96 C1348.84,101.08 1350.28,105.16 1350.28,110.2 L1350.28,112.6 L1319.56,112.6 C1303.72,112.6 1291.48,116.2 1282.6,123.16 C1273.72,130.12 1269.4,139.72 1269.4,151.72 C1269.4,163.48 1273.48,173.08 1281.64,180.28 C1289.8,187.48 1300.6,191.08 1314.04,191.08 C1328.2,191.08 1340.2,187 1350.04,178.6 L1350.04,187.48 L1387,187.48 L1387,111.16 C1387,96.04 1381.96,84.28 1372.12,75.88 C1362.28,67.48 1348.84,63.4 1331.8,63.4 L1332.28,62.92 Z M1324.84,162.28 C1319.8,162.28 1315.72,161.08 1312.6,158.92 C1309.48,156.76 1308.04,153.64 1308.04,149.8 C1308.04,146.2 1309.48,143.32 1312.36,140.92 C1315.24,138.52 1319.08,137.32 1323.88,137.32 L1350.28,137.32 L1350.28,139.96 C1350.28,146.44 1347.88,151.72 1342.84,155.8 C1337.8,159.88 1331.8,162.04 1324.84,162.04 L1324.84,162.28 Z M1456.6,66.52 L1456.6,47.56 C1456.6,43 1458.04,39.4 1460.92,36.76 C1463.8,34.12 1467.64,32.92 1472.2,32.92 C1475.8,32.92 1479.16,33.4 1482.52,34.6 L1490.68,4.84 C1482.76,1.72 1474.84,0.04 1466.92,0.04 C1452.28,0.04 1440.52,4.36 1431.64,12.76 C1422.76,21.16 1418.2,32.44 1418.2,46.6 L1418.2,67 L1400.92,67 L1400.92,97.48 L1418.2,97.48 L1418.2,187.48 L1456.36,187.48 L1456.36,97.48 L1489.48,97.48 L1489.48,67 L1456.6,66.52 Z M1582.36,151.48 C1576.84,154.6 1571.08,156.28 1565.08,156.28 C1554.28,156.28 1549,150.52 1549,138.76 L1549,97 L1584.52,97 L1584.52,66.52 L1549,66.52 L1549,26.2 L1510.6,26.2 L1510.6,66.52 L1488.76,66.52 L1488.76,97 L1510.6,97 L1510.6,142.6 C1510.6,158.2 1514.68,170.2 1523.08,178.36 C1531.48,186.52 1543.24,190.6 1558.36,190.6 C1569.16,190.6 1580.2,187.72 1591.24,181.72 L1582.36,151.48 Z" id="Wiredcraft" fill="#111111"></path>
        </g>
    </g>
</svg>